<svg xmlns="http://www.w3.org/2000/svg" version="1.1" xmlns:xlink="http://www.w3.org/1999/xlink" xmlns:svgjs="http://svgjs.dev/svgjs" width="1000" height="1000" viewBox="0 0 1000 1000"><rect width="1000" height="1000" fill="#90adbb"></rect><g transform="matrix(0.7,0,0,0.7,149.33414634146345,78.94121457489882)"><svg viewBox="0 0 205 247" data-background-color="#90adbb" preserveAspectRatio="xMidYMid meet" height="1204" width="1000" xmlns="http://www.w3.org/2000/svg" xmlns:xlink="http://www.w3.org/1999/xlink"><g id="tight-bounds" transform="matrix(1,0,0,1,0.19499999999999318,-0.09999999999999432)"><svg viewBox="0 0 204.60969972299168 247.2" height="247.2" width="204.60969972299168"><g><svg></svg></g><g><svg viewBox="0 0 204.60969972299168 247.2" height="247.2" width="204.60969972299168"><g transform="matrix(1,0,0,1,0,47.215199999999996)"><svg viewBox="0 0 204.60969972299168 152.7696" height="152.7696" width="204.60969972299168"><g><svg viewBox="0 0 204.60969972299168 152.7696" height="152.7696" width="204.60969972299168"><g><svg viewBox="0 0 204.60969972299168 152.7696" height="152.7696" width="204.60969972299168"><g><svg viewBox="0 0 204.60969972299168 152.7696" height="152.7696" width="204.60969972299168"><g id="textblocktransform"><svg viewBox="0 0 204.60969972299168 152.7696" height="152.7696" width="204.60969972299168" id="textblock"><g><svg viewBox="0 0 204.60969972299168 152.7696" height="152.7696" width="204.60969972299168"><g transform="matrix(1,0,0,1,0,0)"><svg width="204.60969972299168" viewBox="2.049999952316284 -35.45000076293945 48.35000228881836 36.10000228881836" height="152.7696" data-palette-color="#f6f6f6"><path d="M10.2 0.65Q6.05 0.65 4.05-0.98 2.05-2.6 2.05-5L2.05-5Q2.05-6.5 2.88-7.6 3.7-8.7 5.3-8.7L5.3-8.7Q6.9-8.7 7.55-7.6L7.55-7.6Q6.9-6.3 6.9-4.95L6.9-4.95Q6.9-3.4 7.88-2.43 8.85-1.45 10.15-1.45L10.15-1.45Q12.45-1.45 13.28-3.38 14.1-5.3 14.1-8.85L14.1-8.85 14.1-30.1Q14.1-30.95 14.15-31.75 14.2-32.55 14.4-33L14.4-33Q10.55-33.15 9.9-33.2L9.9-33.2Q7.35-33.2 7.35-31.2L7.35-31.2Q7.35-29.3 8.9-28.45L8.9-28.45Q8.1-27.8 6.6-27.8L6.6-27.8Q5.2-27.8 4.15-28.8 3.1-29.8 3.1-31.5L3.1-31.5Q3.1-33.3 4.42-34.38 5.75-35.45 8.25-35.45L8.25-35.45Q8.9-35.45 11.2-35.35L11.2-35.35Q12.45-35.25 15.25-35.15L15.25-35.15Q16.9-35.15 19.9-35.4L19.9-35.4Q19.65-34.05 19.65-31.6L19.65-31.6 19.65-9.45Q19.65 0.65 10.2 0.65L10.2 0.65ZM49.45-34.75Q49.9-34.75 50.15-34.33 50.4-33.9 50.4-33.2L50.4-33.2Q50.4-32.2 49.95-31.2 49.5-30.2 48.85-29.9L48.85-29.9Q46.25-30.85 44.25-31.48 42.25-32.1 40.25-32.45L40.25-32.45 40.3-6.55Q40.3-2.65 41.1-0.6L41.1-0.6Q39.7 0.65 37.9 0.65L37.9 0.65Q36.5 0.65 35.62-0.15 34.75-0.95 34.75-2.25L34.75-2.25 34.7-32.45Q32.7-32.1 30.67-31.48 28.65-30.85 26.15-29.9L26.15-29.9Q25.5-30.2 25.05-31.2 24.6-32.2 24.6-33.2L24.6-33.2Q24.6-33.9 24.85-34.33 25.1-34.75 25.55-34.75L25.55-34.75 49.45-34.75Z" opacity="1" transform="matrix(1,0,0,1,0,0)" fill="#f6f6f6" class="wordmark-text-0" data-fill-palette-color="primary" id="text-0"></path></svg></g></svg></g></svg></g></svg></g><g></g></svg></g></svg></g></svg></g><path d="M0 41.215L0 1 204.61 1 204.61 41.215 190.833 41.215 190.833 14.777 13.777 14.777 13.777 41.215 0 41.215M0 205.985L0 246.2 204.61 246.2 204.61 205.985 190.833 205.985 190.833 232.423 13.777 232.423 13.777 205.985 0 205.985" fill="#f6f6f6" stroke="transparent" data-fill-palette-color="primary"></path></svg></g><defs></defs></svg><rect width="204.60969972299168" height="247.2" fill="none" stroke="none" visibility="hidden"></rect></g></svg></g></svg>